<svg width="20" height="20" viewBox="0 0 20 20" fill="none" xmlns="http://www.w3.org/2000/svg">
<rect width="20" height="20" fill="#1E1E1E"/>
<g clip-path="url(#clip0_0_1)">
<rect width="1440" height="2626" transform="translate(-114 -2369)" fill="white"/>
<rect width="1440" height="421" transform="translate(-114 -164)" fill="#13253E"/>
<path fill-rule="evenodd" clip-rule="evenodd" d="M20 10C20 4.477 15.523 0 10 0C4.477 0 0 4.477 0 10C0 14.991 3.657 19.128 8.438 19.878V12.891H5.898V10H8.438V7.797C8.438 5.291 9.93 3.907 12.215 3.907C13.309 3.907 14.453 4.102 14.453 4.102V6.562H13.193C11.95 6.562 11.563 7.333 11.563 8.124V10H14.336L13.893 12.89H11.563V19.878C16.343 19.128 20 14.991 20 10Z" fill="#D1D5DB"/>
</g>
<defs>
<clipPath id="clip0_0_1">
<rect width="1440" height="2626" fill="white" transform="translate(-114 -2369)"/>
</clipPath>
</defs>
</svg>
